<?xml version="1.0" encoding="utf-8"?>
<!-- Generator: Adobe Illustrator 23.0.1, SVG Export Plug-In . SVG Version: 6.00 Build 0)  -->
<svg version="1.1" id="Layer_1" xmlns="http://www.w3.org/2000/svg" xmlns:xlink="http://www.w3.org/1999/xlink" x="0px" y="0px"
	 viewBox="0 0 24 26" style="enable-background:new 0 0 24 26;" xml:space="preserve">
<style type="text/css">
	.st0{fill:none;stroke:#FFFFFF;stroke-width:0.7;}
	.st1{fill:none;stroke:#FFFFFF;stroke-width:0.7;stroke-linecap:round;}
</style>
<title>Group 2</title>
<desc>Created with Sketch.</desc>
<g id="Symbols">
	<g transform="translate(-3.000000, -2.000000)">
		<g id="Group-2" transform="translate(3.000000, 3.000000)">
			<g id="Group">
				<path id="Rectangle" class="st0" d="M1,21.4c-0.4,0-0.6,0.3-0.6,0.6v2c0,0.4,0.3,0.6,0.6,0.6h22c0.4,0,0.6-0.3,0.6-0.6v-2
					c0-0.4-0.3-0.6-0.6-0.6H1z"/>
				<path id="Rectangle-Copy-3" class="st0" d="M4,6.3C3.6,6.3,3.3,6.6,3.3,7v1.5c0,0.4,0.3,0.6,0.7,0.6h16c0.4,0,0.6-0.3,0.6-0.6V7
					c0-0.4-0.3-0.7-0.6-0.7H4z"/>
				<path id="Path" class="st0" d="M1,21.4V20c0-0.6,0.4-1,0.9-1h20.2c0.5,0,0.9,0.4,0.9,1v1.4"/>
				<path id="Shape-Copy-2" class="st0" d="M18,17.2V8.9 M20,8.9v8.3"/>
				<path id="Shape" class="st0" d="M11,17.2V8.9 M13,8.9v8.3"/>
				<path id="Shape-Copy-4" class="st0" d="M4,17.2V8.9 M6,8.9v8.3"/>
				<path class="st0" d="M3,19v-1c0-0.6,0.4-1,1-1h2c0.6,0,1,0.4,1,1v1"/>
				<path class="st0" d="M10,19v-1c0-0.6,0.4-1,1-1h2c0.6,0,1,0.4,1,1v1"/>
				<path class="st0" d="M17,19v-1c0-0.6,0.4-1,1-1h2c0.6,0,1,0.4,1,1v1"/>
				<path class="st1" d="M4,6.2l7.3-6c0.4-0.3,0.9-0.3,1.3,0l7.3,6"/>
			</g>
		</g>
	</g>
</g>
</svg>
