<?xml version="1.0" encoding="UTF-8"?>
<svg width="24px" height="26px" viewBox="0 0 24 26" version="1.1" xmlns="http://www.w3.org/2000/svg" xmlns:xlink="http://www.w3.org/1999/xlink">
    <!-- Generator: Sketch 52 (66869) - http://www.bohemiancoding.com/sketch -->
    <title>Group 2</title>
    <desc>Created with Sketch.</desc>
    <g id="Symbols" stroke="none" stroke-width="1" fill="none" fill-rule="evenodd">
        <g id="Icon/XSmall/Gov" transform="translate(-3.000000, -2.000000)" stroke="#24304B" stroke-width="0.7">
            <g id="Group-2" transform="translate(3.000000, 3.000000)">
                <g id="Group">
                    <path d="M1,21.35 C0.641014913,21.35 0.35,21.6410149 0.35,22 L0.35,24 C0.35,24.3589851 0.641014913,24.65 1,24.65 L23,24.65 C23.3589851,24.65 23.65,24.3589851 23.65,24 L23.65,22 C23.65,21.6410149 23.3589851,21.35 23,21.35 L1,21.35 Z" id="Rectangle"></path>
                    <path d="M4,6.35 C3.64101491,6.35 3.35,6.64101491 3.35,7 L3.35,8.46120138 C3.35,8.82018646 3.64101491,9.11120138 4,9.11120138 L20,9.11120138 C20.3589851,9.11120138 20.65,8.82018646 20.65,8.46120138 L20.65,7 C20.65,6.64101491 20.3589851,6.35 20,6.35 L4,6.35 Z" id="Rectangle-Copy-3"></path>
                    <path d="M1,21.3641974 L1,20 C1,19.4477153 1.41040565,19 1.91666667,19 L22.0833333,19 C22.5895944,19 23,19.4477153 23,20 L23,21.3641974" id="Path"></path>
                    <path d="M18,17.2134015 L18,8.9 M20,8.9 L20,17.2134015" id="Shape-Copy-2"></path>
                    <path d="M11,17.2134015 L11,8.9 M13,8.9 L13,17.2134015" id="Shape"></path>
                    <path d="M4,17.2134015 L4,8.9 M6,8.9 L6,17.2134015" id="Shape-Copy-4"></path>
                    <path d="M3,19 L3,18 C3,17.4477153 3.44771525,17 4,17 L6,17 C6.55228475,17 7,17.4477153 7,18 L7,19" id="Path"></path>
                    <path d="M10,19 L10,18 C10,17.4477153 10.4477153,17 11,17 L13,17 C13.5522847,17 14,17.4477153 14,18 L14,19" id="Path"></path>
                    <path d="M17,19 L17,18 C17,17.4477153 17.4477153,17 18,17 L20,17 C20.5522847,17 21,17.4477153 21,18 L21,19" id="Path"></path>
                    <path d="M4,6.1866314 L11.3357278,0.234243679 C11.7330964,-0.0780812264 12.2669036,-0.0780812264 12.6642722,0.234243679 L20,6.1866314" id="Path" stroke-linecap="round"></path>
                </g>
            </g>
        </g>
    </g>
</svg>