<?xml version="1.0" encoding="UTF-8"?>
<svg width="28px" height="24px" viewBox="0 0 28 24" version="1.1" xmlns="http://www.w3.org/2000/svg" xmlns:xlink="http://www.w3.org/1999/xlink">
    <!-- Generator: Sketch 52 (66869) - http://www.bohemiancoding.com/sketch -->
    <title>Group 9</title>
    <desc>Created with Sketch.</desc>
    <g id="Symbols" stroke="none" stroke-width="1" fill="none" fill-rule="evenodd">
        <g id="Icon/XSmall/Business" transform="translate(-1.000000, -2.000000)" stroke="#24304B">
            <g id="Group-9" transform="translate(2.000000, 3.000000)">
                <path d="M24.4375,15.7082448 L1.5625,15.6352963 L1.5625,20.9817664 C1.5625,21.6811093 2.13505968,22.25 2.84375,22.25 L23.15625,22.25 C23.8649403,22.25 24.4375,21.6811093 24.4375,20.9817664 L24.4375,15.7082448 Z" id="Shape" stroke-width="1.5"></path>
                <path d="M8,4 L8,1.38546742 C8,0.620294891 8.65519305,-7.06101844e-14 9.46341463,-7.06101844e-14 L16.5365854,-7.06101844e-14 C17.344807,-7.06101844e-14 18,0.620294891 18,1.38546742 L18,4.25925926" id="Path" stroke-width="1.5"></path>
                <rect id="Rectangle-Copy" stroke-width="0.7" fill="#FFFFFF" x="12.13125" y="14.7944444" width="2.14375" height="3.78148148" rx="1.071875"></rect>
                <path d="M11.7861509,16.8888889 L1.70006858,15.2531317 C0.720254289,15.0942258 8.21071606e-15,14.2441721 8.21071606e-15,13.2466881 L0,5.88425098 C0,4.76178794 0.905379728,3.85185185 2.02222222,3.85185185 L23.9777778,3.85185185 C25.0946203,3.85185185 26,4.76178794 26,5.88425098 L26,13.2465587 C26,14.2440994 25.2796658,15.0941839 24.299784,15.2530262 L14.2479422,16.882465" id="Path" stroke-width="1.5"></path>
                <path d="M10,4 L10,3.83302978 L10,3 C10,2.44771525 10.5372583,2 11.2,2 L14.8,2 C15.4627417,2 16,2.44771525 16,3 L16,3.78392926 L16,4" id="Path" stroke-width="1.5"></path>
            </g>
        </g>
    </g>
</svg>