<?xml version="1.0" encoding="utf-8"?>
<!-- Generator: Adobe Illustrator 23.0.1, SVG Export Plug-In . SVG Version: 6.00 Build 0)  -->
<svg version="1.1" id="Layer_1" xmlns="http://www.w3.org/2000/svg" xmlns:xlink="http://www.w3.org/1999/xlink" x="0px" y="0px"
	 viewBox="0 0 28 24" style="enable-background:new 0 0 28 24;" xml:space="preserve">
<style type="text/css">
	.st0{fill:none;stroke:#FFFFFF;stroke-width:1.5;}
	.st1{fill-rule:evenodd;clip-rule:evenodd;fill:#FFFFFF;stroke:#FFFFFF;stroke-width:0.7;}
</style>
<title>Group 9</title>
<desc>Created with Sketch.</desc>
<g id="Symbols">
	<g transform="translate(-1.000000, -2.000000)">
		<g id="Group-9" transform="translate(2.000000, 3.000000)">
			<path id="Shape" class="st0" d="M24.4,15.7L1.6,15.6V21c0,0.7,0.6,1.3,1.3,1.3h20.3c0.7,0,1.3-0.6,1.3-1.3V15.7z"/>
			<path id="Path" class="st0" d="M8,4V1.4C8,0.6,8.7,0,9.5,0h7.1C17.3,0,18,0.6,18,1.4v2.9"/>
			<path id="Rectangle-Copy" class="st1" d="M13.2,14.8L13.2,14.8c0.6,0,1.1,0.5,1.1,1.1v1.6c0,0.6-0.5,1.1-1.1,1.1h0
				c-0.6,0-1.1-0.5-1.1-1.1v-1.6C12.1,15.3,12.6,14.8,13.2,14.8z"/>
			<path class="st0" d="M11.8,16.9L1.7,15.3c-1-0.2-1.7-1-1.7-2V5.9c0-1.1,0.9-2,2-2h22c1.1,0,2,0.9,2,2v7.4c0,1-0.7,1.8-1.7,2
				l-10.1,1.6"/>
			<path class="st0" d="M10,4V3.8V3c0-0.6,0.5-1,1.2-1h3.6C15.5,2,16,2.4,16,3v0.8V4"/>
		</g>
	</g>
</g>
</svg>
