<?xml version="1.0" encoding="utf-8"?>
<!-- Generator: Adobe Illustrator 23.0.1, SVG Export Plug-In . SVG Version: 6.00 Build 0)  -->
<svg version="1.1" id="Layer_1" xmlns="http://www.w3.org/2000/svg" xmlns:xlink="http://www.w3.org/1999/xlink" x="0px" y="0px"
	 viewBox="0 0 24 24" style="enable-background:new 0 0 24 24;" xml:space="preserve">
<style type="text/css">
	.st0{fill:none;stroke:#FFFFFF;stroke-miterlimit:10;}
	.st1{fill:none;stroke:#FFFFFF;stroke-width:0.7;stroke-linecap:round;}
	.st2{fill:none;stroke:#FFFFFF;stroke-width:0.7;}
</style>
<title>Group 6</title>
<desc>Created with Sketch.</desc>
<g id="Symbols">
	<g transform="translate(-3.000000, -3.000000)">
		<g id="Group-6" transform="translate(4.000000, 4.000000)">
			<path id="Fill-3" class="st0" d="M5.1,17.9v-2c0-1,0.7-1.6,1.8-1.9c1.2-0.3,2.7-0.5,2.7-1.5v-0.2c0-0.7-1.2-1-1.2-3.5
				c0-2.5,0.5-3.6,2.6-3.6h0c2.1,0,2.6,1.2,2.6,3.6c0,2.5-1.2,2.7-1.2,3.5v0.2c0,1.1,1.5,1.3,2.7,1.5c1.2,0.3,1.8,1,1.8,1.9v2"/>
			<path id="Path" class="st1" d="M5.1,17.9v-2c0-1,0.7-1.6,1.8-1.9c1.2-0.3,2.7-0.5,2.7-1.5v-0.2c0-0.7-1.2-1-1.2-3.5
				c0-2.5,0.5-3.6,2.6-3.6h0c2.1,0,2.6,1.2,2.6,3.6c0,2.5-1.2,2.7-1.2,3.5v0.2c0,1.1,1.5,1.3,2.7,1.5c1.2,0.3,1.8,1,1.8,1.9V20"/>
			<circle id="Oval" class="st2" cx="11" cy="11" r="11"/>
		</g>
	</g>
</g>
</svg>
