<?xml version="1.0" encoding="UTF-8"?>
<svg width="24px" height="24px" viewBox="0 0 24 24" version="1.1" xmlns="http://www.w3.org/2000/svg" xmlns:xlink="http://www.w3.org/1999/xlink">
    <!-- Generator: Sketch 52 (66869) - http://www.bohemiancoding.com/sketch -->
    <title>Group 6</title>
    <desc>Created with Sketch.</desc>
    <g id="Symbols" stroke="none" stroke-width="1" fill="none" fill-rule="evenodd">
        <g id="Icon/XSmall/Persoonlijk" transform="translate(-3.000000, -3.000000)">
            <g id="Group-6" transform="translate(4.000000, 4.000000)">
                <path d="M5.14458824,17.8776345 L5.14458824,15.8704345 C5.14458824,14.9051255 5.81705882,14.2293618 6.97047059,13.9400527 C8.12341176,13.6502709 9.66082353,13.4573982 9.66082353,12.3954164 L9.66082353,12.1668527 C9.66082353,11.4412164 8.41164706,11.2048527 8.41164706,8.70743455 C8.41164706,6.24121636 8.88858824,5.05939818 11.0062353,5.05939818 L11.0269412,5.05939818 C13.1445882,5.05939818 13.6212941,6.24121636 13.6212941,8.70743455 C13.6212941,11.2048527 12.3723529,11.4412164 12.3723529,12.1668527 L12.3723529,12.3954164 C12.3723529,13.4573982 13.9097647,13.6502709 15.0627059,13.9400527 C16.2158824,14.2293618 16.8885882,14.9051255 16.8885882,15.8704345 L16.8885882,17.8776345" id="Fill-3"></path>
                <path d="M5.14458824,17.8776345 L5.14458824,15.8704345 C5.14458824,14.9051255 5.81705882,14.2293618 6.97047059,13.9400527 C8.12341176,13.6502709 9.66082353,13.4573982 9.66082353,12.3954164 L9.66082353,12.1668527 C9.66082353,11.4412164 8.41164706,11.2048527 8.41164706,8.70743455 C8.41164706,6.24121636 8.88858824,5.05939818 11.0062353,5.05939818 L11.0269412,5.05939818 C13.1445882,5.05939818 13.6212941,6.24121636 13.6212941,8.70743455 C13.6212941,11.2048527 12.3723529,11.4412164 12.3723529,12.1668527 L12.3723529,12.3954164 C12.3723529,13.4573982 13.9097647,13.6502709 15.0627059,13.9400527 C16.2158824,14.2293618 16.8885882,14.9051255 16.8885882,15.8704345 L16.8885882,20" id="Path" stroke="#24304B" stroke-width="0.7" stroke-linecap="round"></path>
                <circle id="Oval" stroke="#24304B" stroke-width="0.7" cx="11" cy="11" r="11"></circle>
            </g>
        </g>
    </g>
</svg>