<?xml version="1.0" encoding="UTF-8"?>
<svg width="266px" height="56px" viewBox="0 0 266 56" version="1.1" xmlns="http://www.w3.org/2000/svg" xmlns:xlink="http://www.w3.org/1999/xlink">
    <!-- Generator: Sketch 52 (66869) - http://www.bohemiancoding.com/sketch -->
    <title>logo-e-herkenning-1494f8b8</title>
    <desc>Created with Sketch.</desc>
    <g id="Visual-design" stroke="none" stroke-width="1" fill="none" fill-rule="evenodd">
        <g id="1440/Digidentity-Documentation-&amp;-Certifications" transform="translate(-130.000000, -3754.000000)" fill-rule="nonzero">
            <g id="logo-e-herkenning-1494f8b8" transform="translate(130.000000, 3754.000000)">
                <polygon id="Path" fill="#FFFFFF" points="0 55.0589812 0 0.0589812332 266 0.0589812332 241.547746 55.0589812"></polygon>
                <path d="M90.5902095,18.342455 L90.5902095,38.7130733 L95.0012367,38.7130733 L95.0012367,27.3751013 C94.9890516,23.9449824 96.6211459,22.1298779 99.7986051,22.0612755 L100.023672,22.0612755 C100.686688,22.0612755 101.225702,22.157033 101.63283,22.3592671 L101.885134,18.0030161 C101.433567,17.7671955 100.888818,17.6457121 100.248022,17.6457121 C99.0610446,17.6457121 98.0331907,18.0044454 97.1415239,18.7261995 C96.3996628,19.3186096 95.7438146,20.1568449 95.1703954,21.2480515 C95.1509937,21.2839063 95.1097168,21.3021308 95.070047,21.2923572 C95.0301136,21.2828651 95.0017595,21.2475296 95.0012367,21.2066042 L95.0012367,17.6935908 L90.5902095,18.342455 Z M104.173794,9.70141391 L104.173794,38.7130733 L108.586971,38.7130733 L108.586971,33.1855797 L108.610625,33.1269818 L111.506392,29.8662251 C111.525152,29.8478994 111.550371,29.837637 111.576635,29.8376408 L111.580936,29.8376408 C111.60906,29.8389485 111.634761,29.8538957 111.649746,29.8776588 L115.938922,36.4356173 C117.057089,38.066353 118.466267,38.8652848 120.190109,38.8688579 C120.766395,38.8688579 121.373502,38.7595228 122.021466,38.5415674 L122.021466,34.4697304 C121.804284,34.5297575 121.505389,34.5440497 121.304692,34.5440497 C120.490437,34.5454789 119.783698,34.1009927 119.199527,33.2484652 L116.868578,29.8740858 C116.11202,28.8038078 115.382356,27.7148828 114.680267,26.6083268 C114.660173,26.5746514 114.664231,26.5318865 114.690302,26.5025648 L116.886497,24.0171579 L122.108196,17.8408001 L116.997597,17.8408001 L108.743945,27.353663 C108.719514,27.3808684 108.681195,27.3909812 108.646463,27.3793889 C108.61099,27.3663288 108.587309,27.3327642 108.586971,27.2950652 L108.586971,9.05898123 L104.173794,9.70141391 Z M161.2032,38.7130733 L161.2032,25.528554 C161.20105,23.1632012 160.479258,21.2409054 159.033525,19.73737 C157.658752,18.2881448 155.99297,17.5678198 154.006789,17.5649614 C151.725297,17.5678198 149.869569,18.4167742 148.425987,20.1261168 C148.402241,20.1563255 148.361254,20.1671252 148.325638,20.1525573 C148.291273,20.1389985 148.268785,20.1057939 148.269013,20.0689481 L148.269013,17.7772 L143.913177,18.4167742 L143.913177,38.7130733 L148.269013,38.7130733 L148.269013,26.1181057 C148.26758,24.6352939 148.681875,23.4447568 149.517633,22.5607866 C150.302501,21.733985 151.270863,21.3130808 152.4091,21.3152247 C153.591777,21.3130808 154.603145,21.7325558 155.410232,22.5607866 C156.268928,23.4411837 156.698275,24.6352939 156.698275,26.1181057 L156.698275,38.7130733 L161.202483,38.7130733 L161.2032,38.7130733 Z M182.776664,38.7130733 L182.776664,25.528554 C182.776664,23.1632012 182.052722,21.2409054 180.608422,19.73737 C179.234367,18.2881448 177.568584,17.5678198 175.583837,17.5649614 C173.303062,17.5685344 171.453068,18.4167742 170.003751,20.1282606 C169.980021,20.1571373 169.940072,20.1670219 169.905553,20.1525573 C169.86993,20.1402358 169.84624,20.1065366 169.846777,20.0689481 L169.846777,17.7772 L165.488792,18.4167742 L165.488792,38.7130733 L169.846777,38.7130733 L169.846777,26.1181057 C169.846777,24.6352939 170.261073,23.4447568 171.093964,22.5607866 C171.878832,21.733985 172.848627,21.3130808 173.986147,21.3152247 C175.169541,21.3130808 176.179476,21.7325558 176.983696,22.5586427 C177.845975,23.4447568 178.275323,24.6352939 178.273889,26.117391 L178.273889,38.7130733 L182.776664,38.7130733 Z M192.219444,38.7095003 L192.219444,18.3646078 L187.813434,18.3410258 L187.813434,38.7095003 L192.219444,38.7095003 Z M214.702494,38.7130733 L214.702494,25.528554 C214.699627,23.1632012 213.967084,21.2409054 212.505582,19.73737 C211.113607,18.2881448 209.424171,17.5678198 207.415053,17.5649614 C205.099873,17.5678198 203.230526,18.4167742 201.761856,20.1282606 C201.73834,20.1564869 201.699214,20.1663111 201.665092,20.1525573 C201.629448,20.1399978 201.605423,20.1066344 201.604883,20.0689481 L201.604883,17.7772 L197.192422,18.4174888 L197.192422,38.7123587 L201.604883,38.7123587 L201.604883,26.1188203 C201.604883,24.6360085 202.022045,23.4454714 202.871423,22.5615012 C203.664175,21.7332704 204.644721,21.3137954 205.795144,21.3159393 L205.800878,21.3159393 C207.000041,21.3159393 208.01571,21.7346996 208.832832,22.5593573 C209.702279,23.4418983 210.139511,24.6360085 210.137361,26.1181057 L210.137361,38.7137879 L214.702494,38.7137879 L214.702494,38.7130733 Z M230.322433,33.7208212 C229.505311,34.5211822 228.525481,34.9242212 227.403013,34.9242212 L227.396562,34.9242212 C226.223203,34.9249358 225.20395,34.5240407 224.363891,33.7208212 C223.49086,32.8682937 223.052195,31.7785164 223.055778,30.4765004 L223.055778,25.8815704 C223.052195,24.527388 223.49086,23.4247477 224.363891,22.596517 C225.183164,21.8468931 226.199549,21.4717238 227.396562,21.473153 C228.548418,21.4717238 229.52538,21.8483223 230.322433,22.5993754 C231.166793,23.4283208 231.588973,24.5288172 231.587539,25.8815704 L231.587539,30.4765004 C231.588973,31.7770871 231.166793,32.8661499 230.322433,33.7208212 Z M227.823042,47.0589812 C229.718909,47.0589812 232.015453,46.3150742 233.508494,44.8644198 C235.167825,43.2851359 236,41.2041971 236,38.6044529 L236,17.7000223 L231.587539,18.4160596 L231.587539,20.1082516 C231.587539,20.1446966 231.565319,20.1782832 231.530914,20.1918607 C231.496393,20.2048636 231.457402,20.1938401 231.434866,20.1647056 C229.96548,18.4567923 228.089682,17.6071233 225.778803,17.6042648 C223.767535,17.6071233 222.078099,18.3160145 220.685407,19.7387992 C219.220321,21.2173233 218.492795,23.0602976 218.492078,25.2913041 L218.492078,31.221122 C218.492795,33.4564162 219.220321,35.2858129 220.685407,36.7357527 C222.078099,38.1342407 223.767535,38.8309836 225.778803,38.8309836 C228.142723,38.8288398 230.014937,38.0063259 231.43415,36.3491497 C231.457006,36.3200343 231.496006,36.3088016 231.530914,36.32128 C231.565319,36.3355722 231.588256,36.3691588 231.588256,36.4056038 L231.588256,39.1961484 C231.588973,40.4795845 231.249222,41.461456 230.553951,42.116037 C229.860114,42.7720473 228.827959,43.0907625 227.473257,43.0907625 C225.126538,43.0936209 223.061513,42.27468 221.294665,40.6403713 L220.79364,45.5047086 C222.770502,46.5273128 225.114353,47.0589812 227.823042,47.0589812 Z M43,38.7666689 L47.9679606,38.7666689 L47.9679606,26.2989015 L43.0007168,26.2989015 L43,38.7666689 Z M47.9679606,9.27407827 L43.0007168,9.27407827 L43.0007168,21.4545732 L47.9679606,21.4545732 L47.9679606,9.27407827 Z M60.9831428,9.27407827 L60.9831428,21.4795845 L50.3813386,21.4795845 L48.2596876,26.2603127 L60.982426,26.2603127 L60.982426,38.7659543 L65.9367679,38.7659543 L65.9367679,9.27407827 L60.9831428,9.27407827 Z" id="Shape" fill="#555555"></path>
                <path d="M23.1332461,39.0589812 C18.6394628,39.0567995 15.0014334,35.3507075 15,30.7762729 L15,17.3395078 C15.0014334,12.7665277 18.6394628,9.06043574 23.1332461,9.05898123 L38,9.05898123 L38,14.2086746 L23.1332461,14.2086746 C21.4327455,14.2130869 20.0569652,15.6139869 20.0585522,17.3395078 L20.0585522,30.7762729 C20.0565688,32.5021961 21.4323497,33.9037475 23.1332461,33.9085606 L38,33.9085606 L38,39.0589812 L23.1332461,39.0589812 Z" id="Path" fill="#1D1D1D"></path>
                <polygon id="Path" fill="#1D1D1D" points="23 21.0589812 23 26.0589812 34.7452546 26.0589812 37 21.0589812"></polygon>
                <path d="M73.5597497,30.6093752 C73.5941521,31.8834369 74.0234652,33.0220359 74.9415789,33.9260707 C75.808089,34.7759205 76.8666791,35.2058361 78.0915474,35.2036972 C79.5572324,35.2036972 80.96343,34.9014017 82.3029729,34.2939587 C83.4296511,33.7713581 84.4638728,33.0477025 85.4070716,32.1244177 L85.2651618,36.7978785 C85.2479606,36.8092859 85.2257424,36.824971 85.1949236,36.842795 L84.2502913,37.4281362 C83.755757,37.7389873 83.2461717,37.983533 82.727269,38.1646251 C82.0521222,38.4255689 81.3167712,38.6337536 80.5190658,38.7891791 C79.516965,38.9502282 78.5031494,39.028209 77.4880722,39.0223175 C75.0763216,39.0223175 73.073816,38.1710418 71.4583372,36.4642126 C69.8192068,34.7067632 69,32.4224355 69,29.5926925 L69,27.3183462 C69,24.5413623 69.8930286,22.2598864 71.6833862,20.4461131 C73.4235736,18.6580064 75.6389439,17.7689438 78.3524322,17.7689438 C80.6179727,17.7689438 82.4764183,18.4163125 83.9392364,19.7053464 C85.4235561,20.9958062 86.1653575,22.6634225 86.1653575,24.7317229 L86.1653575,24.8522134 C86.1560402,28.406325 83.9413866,30.1545059 79.3694527,30.1680522 L74.8297711,30.1680522 L74.8297711,26.6994959 L78.8806522,26.6994959 C79.8188339,26.6994959 80.5384172,26.5077093 81.0272177,26.1034603 C81.5145849,25.6970724 81.7561183,25.0882036 81.7539682,24.3003814 C81.7575517,23.4583742 81.468715,22.8060147 80.8903249,22.378238 C80.3148017,21.9490353 79.4676429,21.7422766 78.3531489,21.7422766 C76.730503,21.7422766 75.4805496,22.2641642 74.6348243,23.3058005 C73.9166744,24.1577892 73.6084864,25.2864068 73.5597497,26.6110887 C73.5597497,26.6110887 73.435041,28.3107882 73.5597497,30.6093752 M127.408802,30.6450232 C127.444638,31.917659 127.871084,33.057684 128.790631,33.9610058 C129.657858,34.8108556 130.713581,35.2407712 131.939883,35.2393453 C133.407002,35.2393453 134.809616,34.9370497 136.154176,34.3296068 C137.277987,33.8062932 138.314359,33.0833506 139.253974,32.1600658 L139.112781,36.8342395 C139.09151,36.8502683 139.068981,36.8645735 139.04541,36.8770172 L138.102927,37.4644972 C137.604093,37.7753483 137.097374,38.019181 136.576322,38.2009861 C135.904042,38.460504 135.16654,38.6686887 134.367402,38.8241142 C133.365631,38.9860509 132.352019,39.0645114 131.337125,39.0586785 C128.924657,39.0586785 126.922152,38.2066898 125.30739,36.4991477 C123.666826,34.7424113 122.848336,32.4580836 122.846902,29.6276276 L122.846902,27.3547072 C122.848336,24.5770104 123.742081,22.2948215 125.531005,20.4817612 C127.269759,18.6936545 129.486563,17.8053048 132.203635,17.8045918 C134.467742,17.8045918 136.326188,18.4519606 137.786856,19.7409945 C139.271892,21.0307413 140.01226,22.6990705 140.013693,24.767371 L140.013693,24.8871485 C140.005093,28.4419731 137.790439,30.1915799 133.217072,30.2058391 L128.678824,30.2058391 L128.678824,26.7358569 L132.729705,26.7358569 C133.66932,26.7358569 134.38747,26.5433574 134.873403,26.1391084 C135.362204,25.7327205 135.605171,25.1238516 135.603021,24.3353165 C135.605171,23.4940223 135.315617,22.8416628 134.737944,22.4138861 C134.164571,21.9839704 133.316695,21.7786376 132.202918,21.7786376 C130.577405,21.7772117 129.328885,22.2990993 128.48316,23.3421615 C127.766444,24.1934372 127.455389,25.3213419 127.408085,26.6460238 C127.408085,26.6460238 127.283377,28.3457233 127.408085,30.6457362 M191.999283,12.7582524 C191.999283,10.9851178 191.147107,10.1238607 189.370368,10.0589812 L189.174704,10.0589812 C187.423766,10.0718145 186.585924,10.9872567 186.585924,12.7582524 C186.585924,14.6190811 187.423766,15.4874679 189.174704,15.5010142 L189.484325,15.5010142 C191.182227,15.4354217 192,14.6190811 192,12.7582524" id="Shape" fill="#555555"></path>
            </g>
        </g>
    </g>
</svg>