<?xml version="1.0" encoding="UTF-8"?>
<svg width="24px" height="23px" viewBox="0 0 24 23" version="1.1" xmlns="http://www.w3.org/2000/svg" xmlns:xlink="http://www.w3.org/1999/xlink">
    <!-- Generator: Sketch 52 (66869) - http://www.bohemiancoding.com/sketch -->
    <title>Group 9</title>
    <desc>Created with Sketch.</desc>
    <defs>
        <polygon id="path-1" points="0.036251046 0.0153633239 14.9438805 0.0153633239 14.9438805 13.893036 0.036251046 13.893036"></polygon>
    </defs>
    <g id="Visual-design" stroke="none" stroke-width="1" fill="none" fill-rule="evenodd">
        <g id="1440/Digidentity-Blog-Detail" transform="translate(-1051.000000, -498.000000)">
            <g id="Group-2" transform="translate(1030.000000, 420.000000)">
                <g id="Group-9" transform="translate(20.000000, 68.000000)">
                    <g id="Group">
                        <path d="M1,27.0934766 C1.03567173,26.9179905 1.06572438,26.7411207 1.1078991,26.5672699 C1.28404802,25.8420531 1.61386951,25.1932577 2.14256881,24.6634028 C4.07843911,22.7233064 6.02182257,20.790569 7.96501663,18.8577059 C8.27021515,18.554096 8.68002971,18.5457935 8.95688025,18.8210362 C9.23556173,19.098103 9.21996718,19.5122879 8.90504575,19.8265905 C7.02100995,21.7071852 5.13432245,23.585264 3.24864512,25.4642233 C2.45660634,26.2534705 2.19522408,27.1922898 2.4683496,28.2723156 C2.58414069,28.7301519 2.82045803,29.1282979 3.1530575,29.4658098 C3.45705644,29.7743258 3.76124478,30.0828417 4.07364079,30.3829292 C5.19190231,31.4572313 6.91689899,31.4683643 8.02044987,30.3803504 C9.96099222,28.4671744 11.8913066,26.5434944 13.8121505,24.6106312 C14.9141862,23.5016722 14.9170273,21.8478886 13.8509791,20.6777925 C13.6099897,20.4132424 13.5546196,20.127307 13.6925082,19.8587944 C13.8231362,19.6044339 14.0907689,19.4406468 14.3765847,19.5065013 C14.5483773,19.5460643 14.7295139,19.6509786 14.8525025,19.7782217 C16.3653628,21.342627 16.3945947,23.8983715 14.86715,25.4587512 C12.9005325,27.4677212 10.9076506,29.452098 8.89159782,31.4117558 C7.33833055,32.9216283 4.81649676,32.910055 3.22061282,31.4373554 C2.8330852,31.079716 2.45932118,30.7055972 2.0990051,30.3206599 C1.51878698,29.700609 1.16983534,28.9636302 1.04507897,28.1230581 C1.03598741,28.0619839 1.01527887,28.0027337 1,27.942603 L1,27.0934766 Z" id="Fill-4" fill="#A8A9A8"></path>
                        <g id="Group-8" transform="translate(10.000000, 10.148289)">
                            <mask id="mask-2" fill="white">
                                <use xlink:href="#path-1"></use>
                            </mask>
                            <g id="Clip-7"></g>
                            <path d="M0.036251046,9.90222659 C0.0518158996,8.78797801 0.420979079,7.80873856 1.20819665,7.01567751 C3.14156485,5.06792159 5.07882427,3.12373998 7.03309205,1.19686564 C8.63909623,-0.386622748 11.2094937,-0.372011913 12.828113,1.20200765 C13.1429247,1.50814539 13.4547866,1.8174185 13.7603724,2.13271153 C15.3289079,3.75093984 15.3462929,6.29648583 13.764954,7.90374034 C11.8622762,9.83763792 9.93173222,11.7442578 8.01135565,13.66066 C7.70884519,13.9625336 7.30183682,13.9686789 7.02738075,13.6885021 C6.75204603,13.4074473 6.77206695,13.0037368 7.08882427,12.6868761 C8.95673222,10.817818 10.8260209,8.95013946 12.6968787,7.08402863 C13.0297657,6.75205542 13.2926736,6.37775468 13.4369623,5.92801689 C13.7234686,5.03487476 13.646272,4.16330399 13.0683013,3.42849816 C12.6172343,2.85485046 12.089159,2.31550373 11.5084895,1.87529748 C10.435205,1.06173109 8.93231799,1.22050634 7.95700418,2.17485094 C7.19476569,2.92069328 6.44639749,3.68058209 5.69200418,4.43426286 C4.56035146,5.56487808 3.42832218,6.69505435 2.29742259,7.82635935 C1.11279916,9.01140463 1.07030962,10.6125765 2.1886569,11.8666 C2.46700418,12.1786322 2.46995397,12.5677946 2.19606276,12.8354927 C1.92016318,13.105072 1.50957741,13.0856954 1.21045607,12.7890265 C0.476962343,12.0613066 0.0377573222,10.9814217 0.036251046,9.90222659" id="Fill-6" fill="#A8A9A8" mask="url(#mask-2)"></path>
                        </g>
                    </g>
                </g>
            </g>
        </g>
    </g>
</svg>