<?xml version="1.0" encoding="UTF-8"?>
<svg width="75px" height="89px" viewBox="0 0 75 89" version="1.1" xmlns="http://www.w3.org/2000/svg" xmlns:xlink="http://www.w3.org/1999/xlink">
    <!-- Generator: Sketch 52 (66869) - http://www.bohemiancoding.com/sketch -->
    <title>Group 23</title>
    <desc>Created with Sketch.</desc>
    <g id="Symbols" stroke="none" stroke-width="1" fill="none" fill-rule="evenodd">
        <g id="Icon/Medium/Digital-signature" transform="translate(-23.000000, -16.000000)">
            <g id="Group-23" transform="translate(24.000000, 17.000000)">
                <path d="M1,67.5 L48,67.5" id="Stroke-1" stroke="#24304B" stroke-width="2" stroke-linecap="square"></path>
                <path d="M24,74 C26.2086479,74 28,75.7903036 28,77.999329 C28,80.2083543 26.2086479,82 24,82 C21.7913521,82 20,80.2083543 20,77.999329 C20,75.7903036 21.7913521,74 24,74 Z" id="Stroke-3" stroke="#24304B" stroke-width="2"></path>
                <path d="M49,35.614502 C49,43.5796926 49,58.5834549 49,80.6257889 C49,84.1459167 46.1985335,87 42.7433014,87 L6.2580494,87 C2.80146653,87 0,84.1459167 0,80.6257889 L0,6.3742111 C0,2.85270717 2.80146653,0 6.2580494,0 L42.7433014,0 C46.1985335,0 49,2.85270717 49,6.3742111 C49,12.6932466 49,17.4325233 49,20.592041" id="Path" stroke="#24304B" stroke-width="2"></path>
                <path d="M9,14.4185 L40,14.5815" id="Stroke-7" stroke="#24304B" stroke-width="2" stroke-linecap="round"></path>
                <path d="M9,33.4185 L20,33.5815" id="Stroke-9" stroke="#24304B" stroke-width="2" stroke-linecap="round"></path>
                <path d="M9,24.4185 L39,24.5815" id="Stroke-11" stroke="#24304B" stroke-width="2" stroke-linecap="round"></path>
                <path d="M10.0765107,44 C8.68445302,48.7141258 8.64452785,50.8592274 9.94475761,54.0225481 C10.0525556,54.2854873 10.189632,54.5537927 10.4664465,54.742948 C10.8869917,55.0313763 11.5603962,55.0622315 12.1020477,54.9092974 C12.6450301,54.7577048 13.0748911,54.4531782 13.4408718,54.1285287 C16.0932341,51.7848811 15.9428492,48.4485035 17.2324323,45.5749527 C18.0322666,45.8285013 18.1720047,46.5878055 18.1972906,47.2142986 C18.2452008,48.3881347 18.2771409,49.2198815 18.4381725,53.1948259 C19.0876219,52.9493265 25.3172796,53.4617898 26,53.5248416" id="Stroke-13" stroke="#25E66A" stroke-width="2" stroke-linecap="round" stroke-linejoin="round"></path>
                <path d="M19,53.4023831 C19.6856741,53.2183831 26.2777191,53.6003831 27,53.6473831" id="Stroke-15" stroke="#25E66A" stroke-width="2" stroke-linecap="round" stroke-linejoin="round"></path>
                <path d="M31.5672921,40.5397462 L64.5617275,2.6867377 C66.2884597,0.656892477 69.3167555,0.426732431 71.3232758,2.17234386 L71.3315049,2.17788989 C73.3393967,3.92350132 73.5670675,6.98490723 71.8403354,9.01475246 L38.8472714,46.8691475 L28.3661859,53.7600838 C27.0618791,54.57119 25.5093288,53.1791376 26.1484529,51.7718338 L31.5672921,40.5397462 Z" id="Fill-17"></path>
                <path d="M26.1484529,51.7718338 L31.5672921,40.5397462 L64.5617275,2.6867377 C66.2884597,0.656892477 69.3167555,0.426732431 71.3232758,2.17234386 L71.3315049,2.17788989 C73.3393967,3.92350132 73.5670675,6.98490723 71.8403354,9.01475246 L38.8472714,46.8691475 L28.3661859,53.7600838 C27.0618791,54.57119 25.5093288,53.1791376 26.1484529,51.7718338 Z" id="Stroke-19" stroke="#24304B" stroke-width="2"></path>
                <path d="M59,9 L66,15" id="Stroke-21" stroke="#24304B" stroke-width="2"></path>
            </g>
        </g>
    </g>
</svg>