<?xml version="1.0" encoding="UTF-8"?>
<svg width="77px" height="90px" viewBox="0 0 77 90" version="1.1" xmlns="http://www.w3.org/2000/svg" xmlns:xlink="http://www.w3.org/1999/xlink">
    <!-- Generator: Sketch 52 (66869) - http://www.bohemiancoding.com/sketch -->
    <title>Group 29</title>
    <desc>Created with Sketch.</desc>
    <g id="Symbols" stroke="none" stroke-width="1" fill="none" fill-rule="evenodd">
        <g id="Icon/Medium/Safe" transform="translate(-22.000000, -15.000000)" stroke-width="2">
            <g id="Group-29" transform="translate(23.000000, 16.000000)">
                <path d="M35.48,67.6614154 L73.1345455,67.6614154" id="Stroke-1" stroke="#24304B" stroke-linecap="square"></path>
                <path d="M48.5492364,74.1133077 C50.7725818,74.1133077 52.5758545,75.9603846 52.5758545,78.2394615 C52.5758545,80.5185385 50.7725818,82.367 48.5492364,82.367 C46.3258909,82.367 44.5226182,80.5185385 44.5226182,78.2394615 C44.5226182,75.9603846 46.3258909,74.1133077 48.5492364,74.1133077 Z" id="Stroke-3" stroke="#24304B"></path>
                <path d="M23.8843345,41.7432154 L23.8843345,6.45352308 C23.8843345,2.91029231 26.7502255,0.0386 30.2862982,0.0386 L67.6105891,0.0386 C71.14528,0.0386 74.0097891,2.91029231 74.0097891,6.45352308 L74.0097891,81.1618308 C74.0097891,84.7036769 71.14528,87.5767538 67.6105891,87.5767538 L26.1408436,87.5767538" id="Stroke-5" stroke="#24304B"></path>
                <path d="M63.0218473,39.0246615 C63.0218473,46.8131231 56.7193745,53.1269692 48.9466473,53.1269692 C47.0798109,53.1269692 45.2958836,52.7614308 43.6639564,52.0995846" id="Stroke-7" stroke="#24304B" stroke-linecap="round"></path>
                <path d="M42.5281018,16.0250923 C44.4543564,15.0350923 46.6362473,14.4757077 48.9480291,14.4757077 C56.7207564,14.4757077 63.0218473,20.7895538 63.0218473,28.5780154 L63.0218473,31.2170923" id="Stroke-9" stroke="#24304B" stroke-linecap="round"></path>
                <path d="M36.2329527,22.5228154 C36.7304073,21.4760462 37.3536073,20.5012769 38.0818255,19.6151231" id="Stroke-11" stroke="#19A887" stroke-linecap="round" stroke-linejoin="round"></path>
                <path d="M37.7051418,47.5094462 C35.9281236,45.1486769 34.8737964,42.2091385 34.8737964,39.0245231 L34.8737964,28.5776" id="Stroke-13" stroke="#25E66A" stroke-linecap="round" stroke-linejoin="round"></path>
                <path d="M40.8210036,39.3269231 L40.8210036,28.6847692 C40.8210036,24.1169231 44.5187491,20.4116923 49.0787491,20.4116923 C53.6373673,20.4116923 57.3337309,24.1169231 57.3337309,28.6847692 L57.3337309,36.8193846" id="Stroke-15" stroke="#19A887" stroke-linecap="round" stroke-linejoin="round"></path>
                <path d="M46.2160364,28.6853231 C46.2160364,27.1954769 47.4223636,25.9867077 48.9092,25.9867077 C50.3960364,25.9867077 51.6023636,27.1954769 51.6023636,28.6853231 L51.6023636,39.5102462" id="Stroke-17" stroke="#25E66A" stroke-linecap="round" stroke-linejoin="round"></path>
                <path d="M57.3340073,37.304 L57.3340073,39.4861538 C57.3340073,42.6098462 54.8080436,45.1409231 51.6920436,45.1409231 C48.5746618,45.1409231 46.0486982,42.6098462 46.0486982,39.4861538 L46.0486982,35.0609231" id="Stroke-19" stroke="#19A887" stroke-linecap="round" stroke-linejoin="round"></path>
                <path d="M7.96509818,53.8018308 L26.73848,53.8018308 C31.1174618,53.8018308 34.6659709,57.3575231 34.6659709,61.7453692 L34.6659709,79.7287538 C34.6659709,84.1152154 31.1174618,87.6722923 26.73848,87.6722923 L7.96509818,87.6722923 C3.58611636,87.6722923 0.0362254545,84.1152154 0.0362254545,79.7287538 L0.0362254545,61.7453692 C0.0362254545,57.3575231 3.58611636,53.8018308 7.96509818,53.8018308 Z" id="Stroke-21" stroke="#24304B"></path>
                <path d="M17.8699709,73.2627385 L17.8699709,76.8738154" id="Stroke-23" stroke="#24304B" stroke-linecap="round" stroke-linejoin="round"></path>
                <path d="M17.8699709,64.5169538 C20.1596436,64.5169538 22.0168073,66.4415692 22.0168073,68.8148 C22.0168073,71.1880308 20.1596436,73.1126462 17.8699709,73.1126462 C15.5802982,73.1126462 13.7231345,71.1880308 13.7231345,68.8148 C13.7231345,66.4415692 15.5802982,64.5169538 17.8699709,64.5169538 Z" id="Stroke-25" stroke="#24304B"></path>
                <path d="M6.27016,53.8018308 C6.15132364,53.1219846 6.08776,52.4199846 6.08776,51.7055231 C6.08776,45.2587538 11.1313964,40.0318308 17.3523418,40.0318308 C23.5719055,40.0318308 28.61416,45.2587538 28.61416,51.7055231 C28.61416,52.4102923 28.55336,53.1012154 28.4386691,53.7713692" id="Stroke-27" stroke="#24304B"></path>
            </g>
        </g>
    </g>
</svg>