<?xml version="1.0" encoding="UTF-8"?>
<svg width="76px" height="90px" viewBox="0 0 76 90" version="1.1" xmlns="http://www.w3.org/2000/svg" xmlns:xlink="http://www.w3.org/1999/xlink">
    <!-- Generator: Sketch 52 (66869) - http://www.bohemiancoding.com/sketch -->
    <title>Group 30</title>
    <desc>Created with Sketch.</desc>
    <defs>
        <path d="M0.34277551,1.75275862 L0.34277551,19.0296552 C0.34277551,19.952931 1.07795918,20.7039655 1.98685714,20.7039655 C2.8957551,20.7039655 3.63404082,19.952931 3.63404082,19.0296552 L3.63404082,1.75275862 C3.63404082,0.827931034 2.8957551,0.0784482759 1.98685714,0.0784482759 C1.07795918,0.0784482759 0.34277551,0.827931034 0.34277551,1.75275862 Z" id="path-1"></path>
        <path d="M0.34277551,1.94362069 L0.34277551,19.2205172 C0.34277551,20.1453448 1.07795918,20.8948276 1.98685714,20.8948276 C2.8957551,20.8948276 3.63404082,20.1453448 3.63404082,19.2205172 L3.63404082,1.94362069 C3.63404082,1.0187931 2.8957551,0.269310345 1.98685714,0.269310345 C1.07795918,0.269310345 0.34277551,1.0187931 0.34277551,1.94362069 Z" id="path-3"></path>
        <path d="M0.797632653,1.21344828 C0.153959184,1.86827586 0.153959184,2.92810345 0.797632653,3.58137931 L12.8071837,15.7996552 C13.4493061,16.452931 14.4931429,16.452931 15.1352653,15.7996552 C15.7773878,15.1448276 15.7773878,14.0834483 15.1352653,13.4301724 L3.12726531,1.21344828 C2.80465306,0.887586207 2.38277551,0.724655172 1.96089796,0.724655172 C1.53902041,0.724655172 1.11869388,0.887586207 0.797632653,1.21344828 Z" id="path-5"></path>
        <path d="M1.00506122,0.623103448 C0.362938776,1.27637931 0.362938776,2.33775862 1.00506122,2.99258621 L13.0130612,15.2077586 C13.6567347,15.8625862 14.7005714,15.8625862 15.3426939,15.2077586 C15.9863673,14.5544828 15.9863673,13.4946552 15.3426939,12.8398276 L3.33159184,0.623103448 C3.01053061,0.297241379 2.58865306,0.132758621 2.16832653,0.132758621 C1.74644898,0.132758621 1.32612245,0.297241379 1.00506122,0.623103448 Z" id="path-7"></path>
        <path d="M1.73714286,0.213448276 C0.825142857,0.213448276 0.0884081633,0.964482759 0.0884081633,1.88775862 C0.0884081633,2.81258621 0.825142857,3.56362069 1.73714286,3.56362069 L18.7192653,3.56362069 C19.6297143,3.56362069 20.366449,2.81258621 20.366449,1.88775862 C20.366449,0.964482759 19.6297143,0.213448276 18.7192653,0.213448276 L1.73714286,0.213448276 Z" id="path-9"></path>
        <path d="M2.42269388,0.213448276 C1.5122449,0.213448276 0.775510204,0.962931034 0.775510204,1.88775862 C0.775510204,2.81258621 1.5122449,3.56362069 2.42269388,3.56362069 L19.4063673,3.56362069 C20.3168163,3.56362069 21.052,2.81258621 21.052,1.88775862 C21.052,0.962931034 20.3168163,0.213448276 19.4063673,0.213448276 L2.42269388,0.213448276 Z" id="path-11"></path>
        <path d="M12.8071837,0.623103448 L0.797632653,12.8398276 C0.155510204,13.4946552 0.155510204,14.5544828 0.797632653,15.2077586 C1.4397551,15.8610345 2.48204082,15.8610345 3.12726531,15.2077586 L15.1352653,2.99258621 C15.7773878,2.33775862 15.7773878,1.27637931 15.1352653,0.623103448 C14.8126531,0.297241379 14.3923265,0.132758621 13.972,0.132758621 C13.5501224,0.132758621 13.1282449,0.297241379 12.8071837,0.623103448 Z" id="path-13"></path>
        <path d="M13.0130612,1.215 L1.00506122,13.4301724 C0.362938776,14.0834483 0.362938776,15.1448276 1.00506122,15.7996552 C1.64873469,16.452931 2.68946939,16.452931 3.33159184,15.7996552 L15.3426939,3.58137931 C15.9863673,2.92655172 15.9863673,1.86827586 15.3426939,1.215 C15.0216327,0.887586207 14.5997551,0.723103448 14.1778776,0.723103448 C13.756,0.723103448 13.3341224,0.887586207 13.0130612,1.215 Z" id="path-15"></path>
        <path d="M2.51885714,4.64206897 C3.72244898,4.64206897 4.69493878,3.65051724 4.69493878,2.42931034 C4.69493878,1.205 3.72244898,0.213448276 2.51885714,0.213448276 C1.31526531,0.213448276 0.34277551,1.205 0.34277551,2.42931034 C0.34277551,3.65051724 1.31526531,4.64206897 2.51885714,4.64206897 Z" id="path-17"></path>
    </defs>
    <g id="Symbols" stroke="none" stroke-width="1" fill="none" fill-rule="evenodd">
        <g id="Icon/Medium/Secure" transform="translate(-22.000000, -15.000000)">
            <g id="Group-30" transform="translate(23.000000, 16.000000)">
                <path d="M36.6561388,87.5793966 C15.4645469,82.7023276 0.0861795918,62.9240517 0.0861795918,40.5466379 L0.0861795918,11.9918103 C0.0861795918,11.7621552 0.100138776,11.5340517 0.114097959,11.3106034 C0.124955102,11.1818103 0.134261224,11.0561207 0.137363265,10.9242241 C0.151322449,10.1918103 0.636791837,9.55715517 1.33164898,9.37715517 L36.6111592,0.152155172 C36.8670776,0.0838793103 37.1338531,0.0838793103 37.3866694,0.152155172 L72.6692816,9.37715517 C73.3594857,9.55715517 73.8465061,10.1887069 73.8620163,10.9242241 C73.8651184,11.0530172 73.8744245,11.1787069 73.8821796,11.3075 C73.8976898,11.5340517 73.9132,11.7590517 73.9132,11.9918103 L73.9132,40.5466379 C73.9132,62.9240517 58.5317306,82.7023276 37.3432408,87.5793966 C37.2284653,87.6042241 37.1136898,87.6166379 36.9989143,87.6166379 C36.8825878,87.6166379 36.7678122,87.6042241 36.6561388,87.5793966 Z" id="Stroke-1" stroke="#24304B" stroke-width="2"></path>
                <g id="Group-5" transform="translate(34.673469, 49.655172)">
                    <mask id="mask-2" fill="white">
                        <use xlink:href="#path-1"></use>
                    </mask>
                    <g id="Clip-4"></g>
                    <polygon id="Fill-3" fill="#1EC268" mask="url(#mask-2)" points="-7.41232653 28.4610345 11.3891429 28.4610345 11.3891429 -7.68172414 -7.41232653 -7.68172414"></polygon>
                </g>
                <g id="Group-8" transform="translate(34.673469, 17.068966)">
                    <mask id="mask-4" fill="white">
                        <use xlink:href="#path-3"></use>
                    </mask>
                    <g id="Clip-7"></g>
                    <polygon id="Fill-6" fill="#24304B" mask="url(#mask-4)" points="-7.41232653 28.6534483 11.3891429 28.6534483 11.3891429 -7.48931034 -7.41232653 -7.48931034"></polygon>
                </g>
                <g id="Group-11" transform="translate(40.326531, 47.103448)">
                    <mask id="mask-6" fill="white">
                        <use xlink:href="#path-5"></use>
                    </mask>
                    <g id="Clip-10"></g>
                    <polygon id="Fill-9" fill="#24304B" mask="url(#mask-6)" points="-7.43828571 24.047069 23.3727347 24.047069 23.3727347 -7.03551724 -7.43828571 -7.03551724"></polygon>
                </g>
                <g id="Group-14" transform="translate(17.612245, 24.827586)">
                    <mask id="mask-8" fill="white">
                        <use xlink:href="#path-7"></use>
                    </mask>
                    <g id="Clip-13"></g>
                    <polygon id="Fill-12" fill="#24304B" mask="url(#mask-8)" points="-7.23240816 23.4567241 23.5801633 23.4567241 23.5801633 -7.62586207 -7.23240816 -7.62586207"></polygon>
                </g>
                <g id="Group-17" transform="translate(42.428571, 41.896552)">
                    <mask id="mask-10" fill="white">
                        <use xlink:href="#path-9"></use>
                    </mask>
                    <g id="Clip-16"></g>
                    <polygon id="Fill-15" fill="#24304B" mask="url(#mask-10)" points="-7.66514286 11.3206897 28.121551 11.3206897 28.121551 -7.54517241 -7.66514286 -7.54517241"></polygon>
                </g>
                <g id="Group-20" transform="translate(9.857143, 41.896552)">
                    <mask id="mask-12" fill="white">
                        <use xlink:href="#path-11"></use>
                    </mask>
                    <g id="Clip-19"></g>
                    <polygon id="Fill-18" fill="#19A887" mask="url(#mask-12)" points="-6.97959184 11.3206897 28.807102 11.3206897 28.807102 -7.54517241 -6.97959184 -7.54517241"></polygon>
                </g>
                <g id="Group-23" transform="translate(40.326531, 24.827586)">
                    <mask id="mask-14" fill="white">
                        <use xlink:href="#path-13"></use>
                    </mask>
                    <g id="Clip-22"></g>
                    <polygon id="Fill-21" fill="#24304B" mask="url(#mask-14)" points="-7.43828571 23.4551724 23.3727347 23.4551724 23.3727347 -7.62586207 -7.43828571 -7.62586207"></polygon>
                </g>
                <g id="Group-26" transform="translate(17.612245, 47.103448)">
                    <mask id="mask-16" fill="white">
                        <use xlink:href="#path-15"></use>
                    </mask>
                    <g id="Clip-25"></g>
                    <polygon id="Fill-24" fill="#25E66A" mask="url(#mask-16)" points="-7.23240816 24.047069 23.5801633 24.047069 23.5801633 -7.03551724 -7.23240816 -7.03551724"></polygon>
                </g>
                <g id="Group-29" transform="translate(34.673469, 41.896552)">
                    <mask id="mask-18" fill="white">
                        <use xlink:href="#path-17"></use>
                    </mask>
                    <g id="Clip-28"></g>
                    <polygon id="Fill-27" fill="#25E66A" mask="url(#mask-18)" points="-7.41232653 12.4006897 12.4515918 12.4006897 12.4515918 -7.54517241 -7.41232653 -7.54517241"></polygon>
                </g>
            </g>
        </g>
    </g>
</svg>